<?xml version="1.0" encoding="utf-8"?>
<!-- Generator: Adobe Illustrator 19.0.0, SVG Export Plug-In . SVG Version: 6.00 Build 0)  -->
<svg version="1.1" id="Layer_1" xmlns="http://www.w3.org/2000/svg" xmlns:xlink="http://www.w3.org/1999/xlink" x="0px" y="0px"
	 viewBox="-89 -90 612 792" style="enable-background:new -89 -90 612 792;" xml:space="preserve">
<style type="text/css">
	.st0{fill:#FFFFFF;}
</style>
<path class="st0" d="M251.5,29.3c-95.4,0-172.7,77.3-172.7,172.7s77.3,172.7,172.7,172.7S424.2,297.4,424.2,202
	S346.9,29.3,251.5,29.3z M321.3,152c-2.3,39.1-22.7,43.2-24.8,81.6c-0.8,14.6,1.7,21.8-1.7,40.2c-3,15.9-9.6,36.2-15.1,35.7
	c-0.9-0.1-2.8-0.8-6-10.9c-4.9-15.2-5.3-27.9-5.4-30.8c-1.1-29.7-1.7-44.6-8.6-48.8c-5.3-3.2-13.2-2-18.3,1.4
	c-7.9,5.3-7.5,16-10.6,48.3c-2.8,29.9-4.8,38.1-8.8,38.9c-2.9,0.6-5.8-2.9-8.5-6.2c-8.7-10.3-10.1-22.4-10.6-27.9
	c-1.6-18.5,1.8-28.1,2.6-39.6c2.2-31.7-18.3-35.9-22.8-75.7c-1.7-15.2-4.1-37.1,9.9-51c7.9-7.8,23.6-15.7,35.3-11.4
	c4.5,1.7,9.5,5.6,19.1,6.6c1.1,0.1,3.8,0.4,8.8,0c12.9-0.9,18.2-4.2,24.7-5.1c12.3-1.7,24.4,5.7,30.2,11.4
	C322.9,120.5,322.1,138.7,321.3,152z"/>
<path class="st0" d="M-505.5,333.3c-6.5,0.9-11.8,4.2-24.7,5.1c-5,0.4-7.7,0.1-8.8,0c-9.6-1-14.6-4.9-19.1-6.6
	c-11.7-4.3-27.4,3.6-35.3,11.4c-14,13.9-11.6,35.8-9.9,51c4.5,39.8,25,44,22.8,75.7c-0.8,11.5-4.2,21.1-2.6,39.6
	c0.5,5.5,1.9,17.6,10.6,27.9c2.7,3.3,5.6,6.8,8.5,6.2c4-0.8,6-9,8.8-38.9c3.1-32.3,2.7-43,10.6-48.3c5.1-3.4,13-4.6,18.3-1.4
	c6.9,4.2,7.5,19.1,8.6,48.8c0.1,2.9,0.5,15.6,5.4,30.8c3.2,10.1,5.1,10.8,6,10.9c5.5,0.5,12.1-19.8,15.1-35.7
	c3.4-18.4,0.9-25.6,1.7-40.2c2.1-38.4,22.5-42.5,24.8-81.6c0.8-13.3,1.6-31.5-10.6-43.3C-481.1,339-493.2,331.6-505.5,333.3z"/>
<path id="XMLID_3_" class="st0" d="M406.3,46"/>
</svg>
