<?xml version="1.0" encoding="utf-8"?>
<!-- Generator: Adobe Illustrator 19.0.0, SVG Export Plug-In . SVG Version: 6.00 Build 0)  -->
<svg version="1.1" id="Layer_1" xmlns="http://www.w3.org/2000/svg" xmlns:xlink="http://www.w3.org/1999/xlink" x="0px" y="0px"
	 viewBox="0 0 612 792" style="enable-background:new 0 0 612 792;" xml:space="preserve">
<style type="text/css">
	.st0{fill:#F3D2BB;}
	.st1{fill:#00A19A;}
	.st2{fill:#E75D29;}
	.st3{fill:#33B3AD;}
	.st4{fill:#717070;}
	.st5{fill:#D5AD96;}
	.st6{fill:#1E1E1C;}
	.st7{fill:#585857;}
	.st8{fill:#C5C5C5;}
	.st9{fill:#F5F5F6;}
	.st10{fill:#7E4F25;}
	.st11{fill:#B1B2B2;}
	.st12{fill:#3D3D3C;}
	.st13{fill:#219DD9;}
</style>
<g id="XMLID_3_">
	<path id="XMLID_96_" class="st0" d="M236.2,458.3c-0.1,0-0.1,0-0.2-0.1c-0.4-0.7-1.2-1.1-2.2-0.8c-5.4,1.6-10.3,1.1-15.7,0
		c-0.3-0.2-0.7-0.4-1.2-0.6c-0.6-0.2-1.4,0-1.8,0.5c-0.4,0.5-0.7,1-1,1.6c-2.9,2-5.2,4.8-7.1,7.8c-1.6,2.4-5.2,7.1-4,10.2
		c1.2,3.4,4.8,1.7,6.6-0.1c0.8-0.8,1.5-1.6,2.2-2.5c0,0.1,0,0.1,0,0.2c-0.6,4.2-1.5,10.5,2.4,13.5c4.5,3.5,6.5-1.9,7.2-5.4
		c0.1-0.3,0.1-0.7,0.2-1c0.5,2.9,1.6,7.1,5,7.4c2.7,0.3,3.5-1.8,3.7-4.1c1.1,2.1,2.6,4,4.7,4c4.4,0,3.4-6.2,3.1-8.8
		c-0.3-2.3-0.6-4.7-1-7c2.7,2.8,5.8,4.3,8.6,1.5C251.3,468.6,241,460.5,236.2,458.3z"/>
	<path id="XMLID_95_" class="st1" d="M335.8,258.6c-5.5,2.4-11.4,3.4-17.4,3.1c-5.9-0.3-11.3-2.1-16.8-3.9c-0.7-0.2-1.3-0.1-1.7,0.2
		c-0.9,0.1-1.6,0.6-1.6,1.7c1.2,14,4.5,27.8,7.7,41.4c3.3,13.9,6.9,27.8,10.9,41.6c0.7,2.6,5.2,3,5.7,0c4.2-26.6,9.8-52.9,16.5-78.9
		c0.1-0.2,0.1-0.4,0.1-0.7C341.6,261.4,338.9,257.2,335.8,258.6z"/>
	<path id="XMLID_90_" class="st2" d="M382.5,681c-5.6-7.3-14-12.9-23.1-14.4c-0.7-0.2-1.4-0.4-2.1-0.6c-13.1-2.9-27.2,5.1-37.5,12.6
		c-1.3,0.9-1.3,2.5-0.6,3.6c-4.5,7.8-3,19.2,7.7,20c6.9,0.5,14.1-0.3,21.1-0.5c7-0.2,13.9-0.4,20.9-0.6c1.3,0,2.6,0,4-0.1
		c2.5,0.3,5.2,0.2,7.4-0.1c2.6-0.3,5-1.5,6.3-3.8C389.7,691.6,385.8,685.3,382.5,681z M382.6,691c0.2,0.8,0.2,1.4,0.2,2
		c0,0-0.1,0-0.1,0c0,0,0,0-0.1,0c0-0.9-0.1-1.9-0.2-2.8C382.4,690.4,382.5,690.7,382.6,691z M338.4,685.1c0.4-0.1,0.7-0.1,1.1-0.2
		c0,0.1,0,0.2-0.1,0.3C339.1,685.2,338.8,685.2,338.4,685.1z M324.6,697c0.1,0.2,0.3,0.3,0.4,0.4c-0.4-0.1-0.7-0.3-1.1-0.4
		C324.2,697,324.4,697,324.6,697z"/>
	<g id="XMLID_74_">
		<path id="XMLID_79_" class="st1" d="M375.7,495.4c-7.2-9.5-14.6-18.8-22.1-28.1c-7-8.7-14.8-16.9-25.3-21.3
			c-20.7-8.7-40.9,5.3-55.1,19.6c-7.1,7.2-14.9,16.2-18.5,26c-1,0.1-1.8,0.8-1.8,2c0.5,6,0.7,12,1.4,18c0.7,5.8,1.4,11.6,2.1,17.3
			l4.3,36.1c2.7,22.7,4.9,45.5,9.2,67.9c1.2,6.3,2.6,12.7,4.3,18.9c1.2,4.6,5.9,15.3-1,17.6c-3,1-2.4,5.3,0.7,5.4
			c16.4,0.8,31.7,8.5,42.4,21c1.2,1.4,2.8,1,3.8,0c0.3,0,0.6-0.1,0.9-0.4c13.4-11.3,26.8-21.8,43-28.8c2.8-1.2,1.1-5.2-1.4-5.3
			c-6.5-0.2-3-13.4-2.6-17.3c0.9-6.9,1.7-13.9,2.6-20.8c1.7-13.9,3.5-27.8,5.2-41.7c3.5-27.8,7.1-55.5,10.5-83.3
			C378.6,496.4,377.2,495.4,375.7,495.4z M281.5,532.3c0-0.1,0-0.3,0-0.4c0-0.9,0.1-1.7,0.1-2.6c0,0.2,0,0.4,0,0.6
			C281.6,530.7,281.5,531.5,281.5,532.3z M291.3,594.1c-0.1-0.5-0.2-1-0.2-1.5c0-0.2,0-0.3,0-0.5c0,0,0.1-0.1,0.1-0.1
			c0.1,0.3,0.1,0.7,0.2,1C291.4,593.4,291.3,593.8,291.3,594.1z M303.5,583.4c-0.1,0.2-0.2,0.3-0.2,0.5c-0.1,0.2-0.1,0.4-0.2,0.6
			c0.1-1.5,0.1-2.9,0.2-4.4c0.1,0.3,0.3,0.6,0.5,0.8C303.7,581.8,303.6,582.6,303.5,583.4z M307.7,647.5
			C307.7,647.5,307.7,647.5,307.7,647.5c0-0.1-0.1-0.1-0.1-0.2c0-0.3,0-0.6,0-0.9c0.2,0.2,0.5,0.4,0.8,0.5
			C308.1,647.1,307.9,647.3,307.7,647.5z M337.1,650.7c0-0.1,0-0.2,0-0.3c0-0.3,0-0.6,0-0.9c0.3,0,0.6,0,0.9,0c0,0.4,0,0.8,0.1,1.3
			C337.8,650.6,337.4,650.6,337.1,650.7z M340.7,561.9c-0.6,3.9-1.1,7.7-1.6,11.6c-0.1,0-0.3,0.1-0.4,0.1c0.7-5.1,1.3-10.3,2-15.4
			c0.3-1.9,0.7-3.7,1-5.6C341.4,555.7,341.1,558.8,340.7,561.9z M347.1,508.1c0.1-0.5,0.1-1,0.2-1.5c0.2,0.3,0.4,0.6,0.6,0.9
			C347.6,507.7,347.3,507.9,347.1,508.1z M351.5,516.5c0.1-1.3,0.3-2.6,0.4-3.9c0.2,0.2,0.4,0.5,0.6,0.7
			C352.2,514.4,351.9,515.5,351.5,516.5z M366.4,529.8c-0.1,0-0.3-0.1-0.5-0.1c0.2-0.8,0.4-1.5,0.6-2.3c0,0,0,0,0.1,0
			C366.5,528.2,366.5,529,366.4,529.8z"/>
		<path id="XMLID_78_" class="st3" d="M284.5,661c-2.1,0.8-4,1.9-5.7,3.2c-0.6-6-2.4-11.7-4.5-17.4c-2.6-6.8-3.6-13.3-4.1-20.5
			c0-0.3-0.5-0.3-0.5,0c-0.6,6.4,1.6,12.9,2.9,19.1c1.4,6.7,3.4,13.3,4.7,20c-0.6,0.5-1.2,1.1-1.8,1.7c-1.7,1.7-4.9,4.4-3.8,7.1
			c0.2,0.4,0.8,0.6,1.2,0.5c0.2-0.1,0.5-0.1,0.7-0.1c0.4-0.1,0.4-0.6,0.1-0.8c-0.1,0.2-0.1,0.2,0,0c0-0.4,0.2-0.9,0.4-1.3
			c0.2-0.4,0.7-0.8,1.1-1.2c1-1.1,2-2.1,3.1-3.1c2.2-2,4.6-3.7,7-5.4C286.2,662.3,285.7,660.6,284.5,661z"/>
		<path id="XMLID_77_" class="st3" d="M325,487c-10.5,5.6-22,7.3-33.1,1.9c-1.2-0.6-2.3,1.1-1.1,1.9c5.3,3.2,11.7,4.9,18,4.8
			c0,0.1,0,0.1,0,0.2c2.8,12.6,1.8,25.5,1.5,38.3c-0.3,13,0.1,26,0.6,39c1.1,25.9,2.2,51.9,3.7,77.8c0.9,14.8,1.5,29.6,2.5,44.4
			c0.1,0.8,1.3,0.8,1.3,0c-0.6-26.4-1.9-52.8-3.2-79.1c-1.2-26.1-3.2-52.4-2.8-78.6c0.3-14,2.6-28.4-1.4-42.1
			c5.7-0.5,11.2-2.4,15.7-6.2C328.2,488.2,326.4,486.2,325,487z"/>
		<path id="XMLID_76_" class="st3" d="M378.1,491.6c-2.6,13.1-4.4,26.3-7.3,39.3c-3,13-6.9,25.8-11,38.5c-0.4,1.1,1.3,1.5,1.7,0.5
			c5.2-12.5,9-25.7,12.1-38.9c3-12.9,5.4-26,5.5-39.3C379.1,491.1,378.2,491,378.1,491.6z"/>
		<path id="XMLID_75_" class="st3" d="M275.3,608.2c-11.1-16-11.6-36.5-14.1-55.1c-1.4-10.6-2.9-21.3-4.1-31.9
			c-1.2-10.5-2.1-21.1-4.1-31.4c-0.1-0.8-1.4-0.6-1.4,0.2c0.7,10.7,2.4,21.5,3.9,32.2c1.6,11.7,2.8,23.4,4.2,35.2
			c2.1,17.5,2.6,37.7,14.1,52.1C274.5,610.1,275.9,609.1,275.3,608.2z"/>
	</g>
	<g id="XMLID_60_">
		<path id="XMLID_71_" class="st0" d="M337.5,246.8c0-2,0.2-4.9-1.3-6.5c-1.6-1.6-4.1-1.1-6.1-1c-3.7,0.2-7.3,0.5-11,0.7
			c-3.4,0.2-6.9,0.4-10.3,0.7c-1.5,0.1-2.9,0.4-3.9,1.2c-0.9-0.3-2.1,0.1-2.4,1.2c-1.2,5.5-2.3,11.2,0,16.5c2.2,5.1,6.5,8.3,12,9.1
			c10.3,1.6,20.7-3.8,22.6-14.6C337.4,251.8,337.5,249.3,337.5,246.8z M327.2,260.4c0.1-0.3,0.2-0.5,0.3-0.8
			c0.4-0.1,0.7-0.3,1.1-0.5C328.1,259.5,327.7,260,327.2,260.4z"/>
		<path id="XMLID_70_" class="st0" d="M386.3,158.9c-1-4.5-2.1-11.8-7-13.6c-2.1-0.8-4.6-0.2-6.5,1.1c-0.1-0.2-0.1-0.4-0.2-0.5
			c-2.8-8.8-6.2-17.5-10.2-25.9c-3.5-7.4-8-14.3-14.7-19.2c-12.7-9.4-30.5-10.3-45.7-8.8c-0.5,0.1-1,0.2-1.4,0.4
			c-9.5,0.8-18.8,4.2-25.7,10.4c-5.6,5.1-8.6,12-10.8,19.1c-2.5,8.1-4.3,16.5-5.6,24.9c-0.5,3.2-1,6.5-1.5,9.8
			c-0.8-0.3-1.6-0.4-2.6-0.4c-5.6,0.2-7.5,5.8-8,10.4c-0.5,5-2.8,13.5,3.6,15.6c1.7,0.6,3.5,0.4,4.9-0.4c0,4.6,0.1,9.2,0.6,13.8
			c1.6,14.5,7.3,27.7,19.2,36.7c12.6,9.4,28.6,12.3,44,11.7c13.9-0.5,29.6-2.4,41.3-10.8c12.8-9.2,17.2-24.6,18.4-39.6
			c0.6-6.8,0.4-13.6-0.3-20.3c1.4,0.1,2.8-0.1,4.1-0.9C387.5,169.6,387.4,163.7,386.3,158.9z"/>
		<path id="XMLID_66_" class="st4" d="M376.4,158.6c0.4,0.2,0.9,0.3,1.3,0.5c0.6,0.5,1.8,0,1.5-0.9c-1.7-4.4-3.8-8.5-5.9-12.6
			c0.6-0.5,1.3-0.8,2.1-0.9c1-0.1,2,0.5,2.9,0.4c0.3,0,0.6-0.2,0.5-0.5c-0.1-0.6-0.5-1.1-1-1.4c-1.8-7-4.6-13.5-8.7-19.4l3,0.3
			c1,0.1,1.5-1.1,1.1-1.9c-6.8-13.3-17.9-23.8-31.7-29.4c0.9-0.6,1.6-1.5,2.1-2.6c0.5-1.1-0.1-2.4-1.4-2.4c-7-0.2-13.4-2.3-20.1-3.9
			c-6.2-1.5-12.3-1.9-18.5-0.7c-6.2,1.2-12.1,3.6-17.7,6.6c-1.5,0.8-2.9,1.6-4.4,2.5c-1.3,0.8-2.8,2.2-4.2,2.7
			c-1.8,0.6-2-1.1-2.7-2.6c-0.8-1.6-1.5-3.3-2.3-4.9c-0.5-1-1.9-0.8-2.4,0c-3,4.5-3.3,10-1.2,14.8c-4.8-0.2-9.4,1-13.6,3.5
			c-1.1,0.7-0.5,2.2,0.6,2.3c2.2,0.2,4.3,0.8,6.2,1.6c0.2,0.3,0.5,0.6,0.8,0.8c0.7,0.4,1.4,0.8,2.1,1.1c-8.5,6.8-13.7,16.9-14.2,28
			c0,0.9,1.3,1.6,1.9,0.8c0.7-0.9,1.4-1.6,2.2-2.2c-2.9,5.6-4.8,11.9-4.3,18.2c0,0,0,0.1,0,0.1c-0.6,0.5-0.1,1.7,0.8,1.5
			c5.2-1.2,3.9,9.9,3.7,12.3c-0.2,3.4-0.7,6.7-1.2,10.1c-0.9,7.3-1.9,14.6-3.5,21.8c-0.2,0.9,0.9,1.7,1.6,0.9c0.5-0.5,1-1.1,1.5-1.6
			c0,10,2.7,19.8,7.8,28.5c0.4,0.7,1.6,0.8,2,0c0.2-0.4,0.4-0.8,0.7-1.3c5.3,7.5,11.8,13.8,19.5,18.7c0.7,0.5,1.9-0.1,1.8-1
			c-0.1-1.2-0.1-2.4-0.2-3.6c8.6,2.9,17.5,4.9,26.6,5.9c0.7,0.1,1.2-0.6,1.2-1.3c1.9,0.6,3.6,1.5,5.3,2.7c0.6,0.4,1.3,0.1,1.7-0.4
			c0.8-1.1,1.5-2.1,2-3.3c8,5.7,20.4-0.6,28.4-4.6c0,0.4,0,0.7,0,1.1c0,0.7,0.8,1.5,1.5,1.2c9.4-3.6,16.9-11.2,20-20.7
			c0.5,0.4,1.2,0.8,1.9,1c0.6,0.2,1.2-0.2,1.4-0.8c1.7-5.5,2.9-11,3.6-16.7c0.7-5.4,0.4-10.7,0.5-16.1c0.4,0.3,0.7,0.7,1,1.1
			c0.5,0.6,1.8,0.3,1.9-0.5C384.1,179.5,381.7,168.8,376.4,158.6z M266,168.6c0.1,0.3,0.1,0.6,0.2,0.8c-0.2-0.2-0.4-0.4-0.6-0.5
			C265.8,168.8,265.9,168.7,266,168.6z M354.7,197.6c-2.1,2.5-6.2,2.3-9.3,2.8c-3.7,0.6-7.3,1.5-10.8,2.6c-9.3,0.4-18.7,0.9-28,1.3
			c-3.7,0.2-7.6,0.5-11.5,0.6c-4.9-0.7-9.7-1.4-14.6-2.3c-0.1,0-0.3,0-0.4,0c-0.7-0.3-1.3-0.6-2-1c-0.5-0.3-1.1,0-1.3,0.5
			c-0.3,0.4-0.6,0.9-0.9,1.3c-2.5-5.6-4.3-11.4-5.3-17.5c-0.1-0.8-1.2-0.6-1.4,0c-0.3,0.8-0.6,1.6-0.9,2.5c-3-5.6-4-12.2-3.7-18.6
			c0.7,0.7,1.4,1.3,2.4,1.9c0.6,0.3,1.2-0.2,1.1-0.9c-0.5-2.5-1.1-4.9-1.7-7.3c0.2-0.1,0.4-0.1,0.6-0.3c0.6,0.4,1.2,0.9,1.8,1.3
			c0.5,0.4,1.2-0.1,1.2-0.7c-0.3-14.2,0.5-28.2,5.9-41.4c0,0,0,0.1,0,0.1c0.3,2.2,0.4,4.4,0.4,6.6c0,0.6-0.1,3.9,1.3,4
			c0,0.2-0.1,0.3-0.1,0.5c-0.2,0.7,0.6,1.2,1.2,0.9c3.2-1.4,6-3,8.6-5c1.2-0.8,2.4-1.6,3.5-2.5c-1.6,3-3.5,5.9-5.8,8.5
			c-2.7,2.6-5.9,4.9-8.8,7.1c-0.6,0.5-0.5,1.7,0.4,1.6c13.4-1.5,25.6-5.3,36.6-12.7c-2,3.4-4.6,6.5-7.6,9.2c-0.9,0.8,0,2.4,1.2,2.1
			c8.4-2.7,16.9-5.3,24.6-9.5c7.2-4,12.7-8.9,17.3-15.6c6.9,8.5,10.3,19.2,9.3,30.2c-0.1,1.1,1.3,1.4,2,0.8c1-0.9,1.8-1.8,2.5-2.8
			c2.7,9.4,3.2,18.8,2.4,28.7c0,0.5,0.5,0.8,0.9,0.7c0.9-0.2,1.6-0.5,2.3-0.9c0.1,4.6-0.9,9.1-3.1,13.1c-1.4,1.7-3.2,3.3-5.3,4.8
			C357.6,194,356.3,195.6,354.7,197.6z"/>
		<path id="XMLID_65_" class="st5" d="M325,196.3c-3.7-3.1-5.7-7.5-6.4-12.3c-0.9-5.6,0.5-11,0.4-16.6c0-1-1.5-1.2-1.8-0.2
			c-3.1,9.6-2.6,22.4,4.7,30c-2.4,1.8-5,2.3-8.1,2.9c-1.4,0.3-1.5,2.6,0,2.9c4.3,0.7,8.3-1.6,11.1-4.7
			C325.5,197.7,325.6,196.8,325,196.3z"/>
		<path id="XMLID_64_" class="st6" d="M295.5,162.7c-1.2-2-4.5-0.7-3.7,1.6c1.2,3.6,1.5,6.3,1,10.1c-0.4,2.6,3,3.6,4,1.1
			C298.2,171.6,297.6,166.3,295.5,162.7z"/>
		<path id="XMLID_63_" class="st6" d="M333.7,157.8c-1.4-1.2-3.7,0.3-2.7,2c2.1,3.3,3.2,6.4,2.4,10.3c-0.5,2.5,3.1,3.5,3.8,1.1
			C338.6,166.6,337.5,160.9,333.7,157.8z"/>
		<path id="XMLID_62_" class="st7" d="M299.8,153.8c-3.6-4.5-12.1-2.5-14.8,1.9c-0.3,0.5,0.3,1,0.7,0.7c2-1.1,4.2-2.1,6.5-2.4
			c2.4-0.3,4.5,0.6,6.8,1C299.9,155.1,300.3,154.4,299.8,153.8z"/>
		<path id="XMLID_61_" class="st7" d="M338.3,149.5c-4.5-2.6-10.2-1.8-13.9,1.9c-0.7,0.7,0.2,2.1,1.1,1.4c3.6-2.6,7.9-3,11.9-1.3
			C338.6,151.9,339.3,150.1,338.3,149.5z"/>
	</g>
	<path id="XMLID_59_" class="st8" d="M372.1,313.8c-2.3-6.7-4.5-13.5-7.3-20c-0.1-0.1-0.3,0-0.2,0.1c1.7,6.8,4.3,13.5,6.5,20.2
		c2.2,6.5,3.9,13.1,6.1,19.5c0.1,0.3,0.6,0.3,0.6-0.1C376.9,326.8,374.3,320.1,372.1,313.8z"/>
	<path id="XMLID_58_" class="st8" d="M352.9,342c-0.7-0.4-1.8-0.2-2.6-0.1c-0.6,0-0.6,1,0,1c0.8,0,1.9,0.3,2.6-0.1
		C353.2,342.6,353.2,342.2,352.9,342z"/>
	<path id="XMLID_57_" class="st8" d="M358.6,341c-0.7,0.2-1.4,0.5-2.1,0.4c-0.7-0.1-0.9,0.8-0.3,1c1,0.3,2.1,0.2,2.8-0.6
		C359.4,341.5,359.1,340.9,358.6,341z"/>
	<g id="XMLID_27_">
		<path id="XMLID_53_" class="st9" d="M445.9,344.8c-1.7-8.8-5.3-17.1-9.5-25c-4.2-7.8-8.6-15.5-13.3-22.9
			c-9-14.1-19.8-27.6-33.7-37.1c-7.6-5.2-16.2-9.3-25.1-11.5c-8.6-2.2-18.6-3.3-27.1-0.1c-1.3,0.5-1.6,2-1,2.9c-0.8,2.2-1,4.7-1.4,7
			c-0.7,4-1.4,8.1-2.1,12.1c-1.4,7.8-2.9,15.7-4.4,23.5c-2.5,13-5.3,25.9-8.2,38.8c-1.1-4.4-2.8-8.8-4-13
			c-2.3-7.4-4.5-14.9-6.5-22.4c-4-15-6.8-30-6.9-45.5c0-0.3-0.1-0.5-0.1-0.8c0.2-0.8-0.2-1.8-1.3-2.2c-7.2-2.6-16.5-1.8-23.8,0.3
			c-6.8,1.9-13.1,5.4-18.7,9.8c-12.3,9.7-20,23.7-25.8,38c-12.8,31.9-19.8,66.6-22,100.9c-0.9,14.3-1,28.6-0.2,42.9
			c0,0.4,0,0.8,0,1.1c-0.1,3.9-0.5,8.1,1.1,11.4c0.1,1.1,0.2,2.2,0.4,3.2c0.2,1.8,2.1,2.5,3.3,1.9c3.4,1.8,7.3,2.7,11.2,3
			c3.6,0.3,8.4,0.3,11.8-1.4c0.8,0.3,1.7,0.1,1.9-0.9c1.7-10.7,2.5-21.5,3.8-32.2c1.4-11.5,3.3-22.9,5.5-34.3
			c1.1-5.6,2.2-11.1,3.5-16.6c-3.2,26.3-4.5,52.9-4.8,79.4c-0.2,15.7,0,31.5,0.3,47.2c0,1.4,1.1,2.3,2.4,2.4
			c11.5,1.3,23,1.9,34.5,1.7c2.8,0,5.5-0.1,8.3-0.3c2-0.1,4.1-0.1,5.9-1.2c3.2-2.1,4.2-7.8,5.4-11.1c4.5-12.6,8.2-25.5,10.9-38.6
			c1.3,8.9,3.3,17.7,5,26.6c1.1,5.4,2,10.9,3.3,16.3c1.1,4.6,3.5,6.4,8.1,7.2c10.1,1.9,20.4,2.1,30.5,0.7c5.1-0.7,10.1-1.8,14.9-3.4
			c3.8-1.2,7.4-2.8,8.3-7c1-4.7,0.6-10.2,0.8-15c0.2-6,0.3-12,0.4-17.9c0.1-11,0-22-0.3-32.9c2.6-0.4,5.3-1.2,7.4-1.7
			c2.9-0.7,5.8-1.4,8.6-2.6c0.5,0.1,1,0,1.5-0.2C435.3,411.2,452.2,377.7,445.9,344.8z M253.6,500.1c0-0.2,0-0.5,0-0.7
			c0.2,0.3,0.4,0.5,0.6,0.8C254,500.1,253.8,500.1,253.6,500.1z M373.4,318.9c-0.2-1-0.5-1.9-0.8-2.9c5.9,3.9,11.4,8.1,16.2,13.4
			c7,7.7,12.2,16.9,14.6,27.1c2.2,9.6,1.6,19.8-2.5,28.8c-3.4,7.4-8.6,12.6-14.8,17.4c-0.8-13.9-2-27.8-3.7-41.6
			C380.7,346.9,378.2,332.5,373.4,318.9z"/>
		<path id="XMLID_52_" class="st8" d="M320.4,332.6c0-0.3-0.5-0.3-0.5,0c-0.5,9.8,0.1,19.7-0.1,29.5c-0.2,9.8-0.8,19.7-0.8,29.5
			c0,0.5,0.8,0.5,0.8,0c0.8-9.8,0.8-19.7,0.8-29.5C320.9,352.3,321.3,342.3,320.4,332.6z"/>
		<path id="XMLID_51_" class="st8" d="M350.5,277.5c2.1-3.6,6.5-8.5,4.5-12.9c-1.2-2.6-3.2-5.1-4.8-7.6l-5.7-9
			c-0.6-0.9-2.1-0.1-1.5,0.9l5,7.9c1.6,2.5,3.9,5.1,5,7.9c1.6,3.9-1.4,7.5-3.3,10.8c-1.6,2.8-3.2,5.5-4.7,8.3
			c-2.2,3.9-6.4,9-6.7,13.6c-0.1,2,0.7,3.7,1.5,5.4c1.3,3.1,2.7,6.1,3.6,9.3c2,7.1,0,12.8-2.8,19.3c-2.3,5.4-4.6,10.9-6.7,16.4
			c-4.7,12-9,24.1-12.2,36.5c-0.1,0.3,0.3,0.4,0.4,0.1c4.5-12.8,8.9-25.6,13.9-38.2c2.5-6.2,5.2-12.2,7.7-18.4
			c2-4.9,2.8-9.9,1.6-15.1c-0.6-2.6-1.6-5.1-2.6-7.5c-1.5-3.5-3.6-6.7-1.9-10.6C343.3,288.8,347.2,283.1,350.5,277.5z"/>
		<path id="XMLID_50_" class="st8" d="M304.8,338.5c-2.9-4.8-6-9.5-8.9-14.3c-1.9-3.1-4.7-6.6-4.8-10.4c-0.1-2.9,1.5-5.5,3.1-7.8
			c2.2-3.3,5.9-7.4,4.7-11.6c-1.1-4-5.7-7.3-8.4-10.4c-2.2-2.5-4.2-5.1-5.7-8.1c-1-2-1.8-3.7-0.8-6.1c0.7-1.7,2.4-3.2,3.5-4.7
			c3.9-5,7.8-9.9,11.3-15.1c0.3-0.4-0.4-0.9-0.7-0.5c-4.8,5.3-9,11-13.4,16.7c-3,3.8-3.5,6.2-1.3,10.6c2.6,5.2,6.8,9.3,10.6,13.6
			c1.2,1.3,2.8,2.8,3.3,4.6c0.6,2.1-0.6,4.3-1.7,6c-1.3,2.2-3,4.2-4.3,6.5c-2.4,4.3-2.3,8.3,0,12.6c2.9,5.5,6.6,10.6,9.8,15.8
			c6.8,10.9,12.9,22.2,15.5,35c0.2,0.9,1.6,0.5,1.4-0.4C316.2,358.8,310.8,348.4,304.8,338.5z"/>
		<path id="XMLID_47_" class="st8" d="M314.8,378.3c-0.1,0-0.1-0.1-0.2-0.1c0-0.4-0.5-0.6-0.8-0.4c-1.2,1.1-1.8,2.6-1.6,4.2
			c0.2,1.2,0.8,2.5,2.2,2.4c1.2-0.1,2.2-1.2,2.3-2.3C316.8,380.8,315.9,379.1,314.8,378.3z M314.1,379.2c0.1,0.2,0.2,0.3,0.3,0.5
			c-0.1,0-0.1,0-0.2,0.1c-0.1,0.1-0.2,0.1-0.3,0.2c0,0-0.1,0-0.1,0C313.8,379.7,313.9,379.5,314.1,379.2z"/>
		<path id="XMLID_44_" class="st8" d="M313.9,450.8c0.1-1.3-0.7-2.5-1.9-3c-0.1-0.4-0.6-0.6-1-0.4c-0.1,0.1-0.2,0.2-0.4,0.3
			c-1.1,0.2-1.7,1.4-1.7,2.4c-0.2,0.5-0.3,1-0.3,1.5c0,1,0.6,2.2,1.6,2.6c0.1,0,0.2,0.1,0.3,0.1c0.1,0,0.2,0,0.3,0
			c0.2,0,0.3-0.1,0.5-0.2C312.7,453.4,313.8,452.3,313.9,450.8z M311.4,451.8c0-0.1,0-0.1,0-0.2c0.4-0.5,0.5-1,0.5-1.6
			c0,0.1,0.1,0.1,0.1,0.2C312.2,450.8,311.9,451.4,311.4,451.8z"/>
		<path id="XMLID_41_" class="st8" d="M307.9,469.1c-0.2-0.5-0.9-0.6-1.3-0.3c-0.1,0.1-0.2,0.1-0.3,0.2c0,0,0-0.1,0-0.1
			c0.2-0.5-0.6-0.8-0.9-0.4c-1,1.4-3.9,7.9-0.2,8.1c1.5,0.1,2.4-1.6,2.9-2.8C308.7,472.3,308.5,470.6,307.9,469.1z M306.1,472.2
			c0.1-0.3,0.3-0.6,0.5-0.9c0,0.3,0,0.6,0,0.9C306.4,472.2,306.3,472.2,306.1,472.2z"/>
		<path id="XMLID_40_" class="st8" d="M260.6,316.5c1.2-4.7,2.5-9.5,3.6-14.2c0-0.2-0.2-0.3-0.3-0.1c-1.7,4.1-2.9,8.4-3.9,12.7
			c-0.8-2.3-0.8-4.5-0.9-7.1c0-0.6-0.9-0.7-1.1-0.1c-0.8,2.8,0.2,6,1.7,8.5c-0.6,2.7-1.1,5.5-1.6,8.2c-1.3,7.1-2.3,14.3-3.1,21.5
			c-1.6,15.1-3,30.7-2.6,45.9c0,0.4,0.6,0.4,0.7,0c1.4-14.8,1.1-29.8,2.5-44.6c0.7-7.6,1.8-15.1,3.2-22.6c0.5-2.6,1.1-5.2,1.8-7.8
			C260.6,316.6,260.6,316.5,260.6,316.5z"/>
		<path id="XMLID_37_" class="st8" d="M292.8,337.7c-0.1-0.5-0.6-0.6-1-0.4c0-0.3-0.1-0.6-0.5-0.6c-7.9,0.2-15.5,0.3-23.4-0.2
			c-0.5,0-0.6,0.7-0.3,0.9c-3.5,10.1-0.9,29.3,13.1,29.2c5.3-0.1,9.6-4,11.7-8.6C295.4,351.6,294.1,344.3,292.8,337.7z M291.7,355.5
			c-1.6,5-5.9,9.7-11.4,9.5c-6.3-0.2-10.3-6.1-11.7-11.6c-1.3-5.3-0.5-10.4,0-15.7c7.4,1.2,15.5,1.3,22.9,0
			c-0.1,0.1-0.1,0.3-0.1,0.4C292.4,343.7,293.5,349.9,291.7,355.5z"/>
		<path id="XMLID_34_" class="st8" d="M368.7,336.6c-0.1-0.3-0.3-0.4-0.5-0.5c-0.1-0.2-0.2-0.4-0.5-0.4c-8,0.8-15.9,1.3-23.9,2
			c-0.4,0-0.5,0.6-0.1,0.7c-0.9,5.3-1.3,11.1,1.4,16.1c2.7,4.9,7.8,6.8,13.2,6.4c4.8-0.4,9.1-2.5,11.1-7.1
			C371.8,348.3,370.3,342.2,368.7,336.6z M368.9,351c-1.3,5.4-5.7,8.3-11.1,8.6c-5.2,0.3-9.8-1.8-12-6.6c-2.1-4.5-1.5-9.7-1.4-14.5
			c7.7,0.2,15.5-0.5,23.1-1.6c0,0,0,0,0,0C368.6,341.5,370,346.3,368.9,351z"/>
		<path id="XMLID_33_" class="st8" d="M271.8,342.6c-0.8-0.2-1.6-0.1-2.4-0.1c-0.5,0-0.5,0.7,0,0.7c0.8,0,1.6,0.1,2.4-0.1
			C272.1,343.1,272.1,342.7,271.8,342.6z"/>
		<path id="XMLID_32_" class="st8" d="M277.4,343c-0.7-0.3-1.5-0.4-2.3-0.6c-0.6-0.1-0.9,0.8-0.3,0.9c0.8,0.2,1.6,0.4,2.5,0.4
			C277.8,343.8,277.8,343.2,277.4,343z"/>
		<path id="XMLID_31_" class="st8" d="M282.9,343.3c-0.6,0-1.2,0.1-1.9,0.1c-0.5,0-0.5,0.7,0,0.8c0.6,0,1.2,0.1,1.9,0.1
			C283.6,344.4,283.6,343.2,282.9,343.3z"/>
		<path id="XMLID_30_" class="st8" d="M290.1,342.9c-1-0.1-2,0-2.9,0c-0.6,0-0.6,0.8,0,0.9c1,0.1,2,0.2,2.9,0
			C290.6,343.8,290.6,342.9,290.1,342.9z"/>
		<path id="XMLID_29_" class="st8" d="M347.6,342.9c-0.3-0.1-0.7,0-1,0c-0.3,0-0.7,0.1-1,0.1c-0.4,0-0.4,0.6,0,0.6
			c0.3,0,0.7,0.1,1,0.1c0.3,0,0.7,0.1,1,0C348,343.6,348,343.1,347.6,342.9z"/>
		<path id="XMLID_28_" class="st8" d="M364.8,340c-1,0-2,0.6-3,0.9c-0.6,0.2-0.4,1.2,0.3,1c1-0.2,2.1-0.4,3-0.9
			C365.5,340.7,365.4,340,364.8,340z"/>
	</g>
	<path id="XMLID_24_" class="st10" d="M384.4,448.4c-4-11.1-8.8-22.1-13.3-33c-2.2-5.3-4.5-10.5-6.7-15.8
		c-2.3-5.2-4.3-10.6-7.2-15.6c0.1-2.7-1.7-5-4.6-5.7c-4.1-0.9-8.5,2.2-12,3.9c-9.6,4.5-19.3,8.9-28.9,13.4c-3.2,1.5-6.8,3-8.7,6
		c-2.6,4-0.9,8,0.6,12.1c3.8,10.2,7.7,20.4,11.8,30.5c3.8,9.5,7.8,18.9,11.8,28.3c1.3,3.1,2.5,7.1,5.7,9c4,2.4,8.7-1,12.3-2.7
		c9.4-4.5,18.9-8.9,28.2-13.7C380.6,461.4,387.7,457.7,384.4,448.4z M333.7,412.1c0.1,0.5,0.2,1,0.3,1.5c-0.2-0.5-0.3-0.9-0.5-1.4
		C333.5,412.2,333.6,412.2,333.7,412.1z"/>
	<path id="XMLID_23_" class="st9" d="M374.3,437c-5.9-14.5-11.7-29.5-19.4-43.2c-4.4-7.8-13-1-18.7,1.8c-8.4,4.1-16.8,8.1-25.2,12.2
		c-1.7,0.8-1.9,2.5-1.2,3.8c1.8,7.7,5.5,15.1,8.5,22.4c3,7.3,6,14.5,9.1,21.7c1.5,3.6,3.1,7.2,4.7,10.8c1.2,2.8,2.6,5.4,5.9,5.9
		c3.2,0.5,6.3-1.2,9.1-2.4c3.4-1.4,6.8-3,10.2-4.5c3.3-1.6,6.6-3.2,9.9-4.9c3.1-1.6,7.3-3.1,9.8-5.6
		C381.7,450.3,376.2,441.8,374.3,437z"/>
	<path id="XMLID_20_" class="st11" d="M339.7,391.2c-0.5-0.2-1,0-1.3,0.4c-0.3-0.3-0.7-0.4-1.2-0.2c-1,0.4-2,0.7-2.9,1.1
		c-2.1-2-6.1-2.6-8.4-1.6c-2.7,1.1-4.4,4.1-3.6,6.9c-1.3,0.7-2.6,1.4-3.8,2.1c-0.1,0-0.1,0.1-0.2,0.1c-0.3,0-0.5,0.2-0.6,0.6
		c-0.4,2.5-0.4,5.7,2.7,6.4c1.4,0.3,2.7-0.4,4-1c2.4-1.1,4.7-2.1,7.1-3.2c3.1-1.4,8.3-2.7,10.1-5.9
		C342.8,394.9,342.2,392.1,339.7,391.2z M327.9,393.1C328,393.1,328,393.1,327.9,393.1c-0.7,0.3-1.5,0.6-2.2,0.9
		C326.4,393.6,327.1,393.2,327.9,393.1z"/>
	<path id="XMLID_19_" class="st12" d="M351.9,406.1c-3.5,1.7-6.9,3.6-10.3,5.3c-2.3,1.1-4.5,2.1-6.9,2.9c-1.1,0.4-2.2,0.6-3.2,1.3
		c0,0-0.8,0.7-0.8,0.7c-1.1,0.7-1.9,0.4-3.1,0.6c-0.6,0.1-1.1,0.1-1.6,0.4c-0.8,0.5-1,1.2-1.6,1.8c-1.2,1-2.3,0.4-3.6,0.2
		c-0.3,0-0.6,0.2-0.5,0.5c0.4,1.4,0.8,2.6,1.5,3.9c0.2,0.3,0.6,0,0.5-0.3c-2-4.4-0.2-1.7,2.1-2.4c0.2,0,0.8-1,0.5-0.8
		c0.3-0.2,2.9-2.3,3.3-2.4c0.6-0.1,1.3,0.4,2.1,0.2c0.3-0.1,2.2-2,2.1-1.9c0.9-0.5,2.2-0.8,3.2-1.1c1.7-0.5,3.3-1.2,4.8-2
		c4.1-1.9,8.2-3.9,12.1-6C353.1,406.7,352.5,405.7,351.9,406.1z"/>
	<path id="XMLID_18_" class="st12" d="M356.3,417.9c-2,0.4-5.3,0.5-6.9,2c-1,1-0.5,2.1-0.8,3.2c-1.3-1.3-2.6-2.4-4.1-3.5
		c-0.4-0.3-0.9,0.1-0.9,0.5c0,0.9,0.4,4.3-0.3,5c-1.3,1.3-1.2,0.2-2.2,0.1c-1-0.2-1.2-0.4-2.2,0c-0.3,0.1-0.5,0.8-0.6,0.9
		c-0.8,0.6-1.8,1.3-2.8,1.6c-1,0.3-1.8,0.5-2.7,0.9c-0.5,0.2-2.7,1.1-3.3,1.1c-0.6,0-1.4-0.8-2.1-0.9c-0.7-0.1-1.4,0-1.9,0.6
		c-0.8,0.9-0.4,2.2,0.7,2.5c0.4,0.1,0.6-0.5,0.2-0.7c1.3-0.8,2.5-0.9,3.6-0.2c0.4,0.2,0.7,0.2,1.1,0.2c0.4,0,0.8-0.2,1.2-0.3
		c0.4-0.2,0.5-0.6,0.8-0.9c1.6-1.2,2-0.9,3.7-1.3c1.2-0.3,1.3-0.6,2.2-1.3c2.4-1.7,2.3,0,4.6-0.2c0.2,0,0.5-0.2,0.5-0.4
		c0.4-1.8,0.6-3.6,0.6-5.4c1.3,1,2.4,2.1,3.6,3.3c0.3,0.3,0.7,0.2,1-0.1c0.7-0.9,0.2-1.4,0.5-2.4c0.9-2.5,4.6-2.5,6.7-3
		C357.4,418.9,357.1,417.8,356.3,417.9z"/>
	<path id="XMLID_17_" class="st12" d="M360.5,426.2c-0.9,0.3-1.4,0.6-2.1,1.3c-0.5,0.5-0.9,1.3-1.5,1.7c-0.9,0.6-1.9,0.2-2.8,0.3
		c-1.9,0.1-1.7,0.7-2.7,2.1c-1,1.4-2,1.8-3.5,2c-0.5,0.1-1-0.1-1.6,0.1c-1.2,0.3-2.1,1.1-3,1.8c-3.3,2.5-6.9,4.2-10.9,5.1
		c0.1-0.2,0.3-0.4,0.4-0.6c0.3-0.3-0.3-0.7-0.6-0.4c-0.5,0.5-0.9,0.9-1.4,1.4c-0.4,0.4,0,0.9,0.5,0.8c3.5-0.5,6.8-1.7,9.8-3.5
		c1.5-0.9,2.8-2.4,4.3-3.2c1.8-1,3.8,0.2,5.4-0.8c0.6-0.4,0.6-0.8,1.1-1.4c1.1-1.3-1.7-1.4,2.7-2.2c0.4-0.1,0.8,0.3,1.3,0.2
		c2.2-0.6,3-2.8,5-3.7C361.5,426.9,361,426,360.5,426.2z"/>
	<path id="XMLID_16_" class="st12" d="M362.2,438.3c-3.8,1.9-7,4.3-11.2,5.5c-2.7,0.8-5.5,1-7.9,2.4c-0.3,0.2-0.5,0.7-0.8,0.8
		c-1.3,0.6-2.1,0.1-3.2,0c-0.5,0-0.9-0.2-1.4,0c-2,0.5-2.2,2.7-1.7,4.4c0.1,0.3,0.5,0.2,0.5-0.1c-0.5-1.7,0.5-2.7,3-2.9
		c0.3,0.3,0.6,0.5,0.9,0.6c0.2-0.1,0.9,0.1,1.3,0.1c-0.1,0,4.7-2.9,4.2-2.9c0.9-0.2,1.8-0.3,2.6-0.5c4.8-1,10.7-3,14.2-6.7
		C363,438.6,362.6,438.1,362.2,438.3z"/>
	<path id="XMLID_15_" class="st12" d="M366.1,447.8c-3,0.5-5.2,3.5-8,3.8c-2.7,0.3-2.1,0.2-3.3,2.4c-1.4,2.6-3.5,2-6,2.3
		c-1.5,0.2-2.9,0.5-4.3,1.1c-1.8,0.7-3.5,1.7-3.4,3.8c0,0.4,0.6,0.4,0.6,0c-0.1-4.2,8.4-3.7,10.7-4c1.2-0.2,2.4-0.4,3.1-1.5
		c0.8-1.2,0.1-2.2,2.1-2.9c0.5-0.2,1.4,0.2,2,0c0.8-0.2,1-0.7,1.6-1.1c1.7-1.3,3.2-2.1,5.2-2.9C367.1,448.6,366.8,447.7,366.1,447.8
		z"/>
	<g id="XMLID_12_">
		<path id="XMLID_14_" class="st13" d="M298.4,246.2c-20.2-2.6-29.9,20.9-31,37.1c-1.3,19.1,4.1,42.1,17.3,56.6
			c1.7,1.8,4.7-0.5,3.4-2.6c-4.6-7.6-9.2-14.6-12.1-23.1c-2.7-8-4.2-16.4-4.3-24.9c-0.2-17.9,6.4-37.8,26.8-40
			C300.3,249,300.2,246.5,298.4,246.2z"/>
		<path id="XMLID_13_" class="st8" d="M301.9,344.1c-2-1.8-3.9-3.5-5.9-5.3c-1.5-1.4-3.2-3-5.2-3.6c-3.3-1-6.8,1.1-7.1,4.5
			c-1.1,0.7-1.8,2-1.3,3.7c1.2,4.2,3.6,9.9,7.5,12.2c4.9,3,9.2-3.9,12-7C303,347.4,303.2,345.3,301.9,344.1z"/>
	</g>
	<g id="XMLID_8_">
		<path id="XMLID_11_" class="st13" d="M369.7,331.7c0.9-0.1,1.7-0.6,2-1.6c6-18.8,4.9-39.5-0.5-58.4c-2.3-8-6-15.9-12.5-21.4
			c-3.5-2.9-13.5-9.6-17.6-5c-0.2,0.2-0.2,0.5,0,0.8c1.8,2.1,5,1.8,7.5,2.7c3.6,1.4,6.8,3.8,9.4,6.7c5.5,6.2,8.1,14.5,9.9,22.4
			c3.8,16.8,4.5,34.4-0.8,51c-0.2,0.7-0.1,1.3,0.1,1.8c-10.2-4.2-21-0.2-29.2,6.6c-8,6.7-11.5,18.9-4.7,27.6c0.8,1,2.2-0.1,2-1.1
			c-2.4-9.9-0.5-18.6,8.1-24.6c7.8-5.4,16.9-7.5,25.2-2c7.5,5,11.4,13.9,10,22.8c-1.4,9-7.1,15.1-13.8,20.7c-2.2,1.8,0.6,5,2.9,3.8
			C387.8,373.7,390.1,342.5,369.7,331.7z"/>
		<path id="XMLID_10_" class="st8" d="M343.1,361.5c-2.4-1.6-5.8-1.8-8.1-0.1c-3.4,1.6-4.7,6.5-3.4,9.8c0.8,2.1,3,3.2,5.1,2.1
			c3.1-1.7,5.7-4.1,7.7-7C345.5,364.7,344.6,362.6,343.1,361.5z"/>
		<path id="XMLID_9_" class="st8" d="M367,375.9c-0.3-0.4-0.7-0.6-1.1-0.7c-0.2-0.1-0.3-0.3-0.5-0.4c-1.4-0.8-3-0.5-4.1,0.5
			c-1.2,1-2,2.5-2.9,3.8c-0.9,1.2-1.7,2.4-2.6,3.6c-1.5,2,0.2,4.5,2.1,5.2c3.3,1.3,7.3,0.2,9.6-2.5
			C369.7,382.6,369.2,378.7,367,375.9z"/>
	</g>
	<path id="XMLID_5_" class="st2" d="M307.6,680.5c-5.1-4.9-11.7-7.1-18.6-8.1c-2.7-0.4-5.4-0.7-8.2-0.8c-0.3-0.6-0.8-1.1-1.6-1.1
		c-6.9,0.5-13.4,2.5-19.4,6c-5.4,3.2-11.6,8-14.1,13.9c-2.3,5.6,0.8,10.4,6.4,11.9c3,0.8,6.2,0.8,9.2,1c4.6,0.2,9.2,0.4,13.8,0.5
		c9,0.2,17.9,0,26.9-0.5c4.9-0.3,12.1-0.9,13.3-6.8C316.5,691,311.4,684.2,307.6,680.5z M260.6,684.9c0.2,0.1,0.3,0.2,0.5,0.2
		c-0.3,0-0.6,0.1-0.8,0.1C260.3,685.1,260.5,685,260.6,684.9z"/>
	<path id="XMLID_4_" class="st0" d="M378.8,428.1c-1.6-5.2-2.7-10.3-3.7-15.6c-0.7-3.7-2.7-6.6-6.5-7.1c-1.7-0.2-2.1,2.7-0.4,3
		c0,0.1,0.1,0.3,0.1,0.4c-5.3-0.8-12.8,4.4-13.5,9.2c-0.4,3.1,2.4,4.5,5,3.9c0.3-0.1,0.6-0.2,0.8-0.3c-0.5,0.7-0.8,1.4-1.1,2.3
		c-0.4,1.6-0.2,3.6,1.7,4c0.8,0.2,1.6,0,2.3-0.3c-0.7,1.3-1.2,2.8-1.4,4.5c-0.1,0.6,0.5,1.1,1,1.3c1.4,0.5,2.6,0.2,3.8-0.4
		c-0.4,1.5-0.5,3.1,0.6,4.2c3.7,3.8,9.2-4.4,10.7-7.8C378.6,429.2,378.9,428.7,378.8,428.1z"/>
</g>
</svg>
