<?xml version="1.0" encoding="utf-8"?>
<!-- Generator: Adobe Illustrator 19.0.0, SVG Export Plug-In . SVG Version: 6.00 Build 0)  -->
<svg version="1.1" id="Layer_1" xmlns="http://www.w3.org/2000/svg" xmlns:xlink="http://www.w3.org/1999/xlink" x="0px" y="0px"
	 viewBox="0 0 612 792" style="enable-background:new 0 0 612 792;" xml:space="preserve">
<style type="text/css">
	.st0{fill:#F68D57;}
	.st1{fill:#FFFFFF;}
</style>
<circle id="XMLID_1_" class="st0" cx="291.5" cy="373" r="172.7"/>
<path id="XMLID_2_" class="st1" d="M262,478.6c4-0.8,6-9,8.8-38.9c3.1-32.3,2.7-43,10.6-48.3c5.1-3.4,13-4.6,18.3-1.4
	c6.9,4.2,7.5,19.1,8.6,48.8c0.1,2.9,0.5,15.6,5.4,30.8c3.2,10.1,5.1,10.8,6,10.9c5.5,0.5,12.1-19.8,15.1-35.7
	c3.4-18.4,0.9-25.6,1.7-40.2c2.1-38.4,22.5-42.5,24.8-81.6c0.8-13.3,1.6-31.5-10.6-43.3c-5.8-5.7-17.9-13.1-30.2-11.4
	c-6.5,0.9-11.8,4.2-24.7,5.1c-5,0.4-7.7,0.1-8.8,0c-9.6-1-14.6-4.9-19.1-6.6c-11.7-4.3-27.4,3.6-35.3,11.4
	c-14,13.9-11.6,35.8-9.9,51c4.5,39.8,25,44,22.8,75.7c-0.8,11.5-4.2,21.1-2.6,39.6c0.5,5.5,1.9,17.6,10.6,27.9
	C256.2,475.7,259.1,479.2,262,478.6z"/>
<path id="XMLID_3_" class="st1" d="M446.3,217"/>
</svg>
