<?xml version="1.0" standalone="no"?>
<!DOCTYPE svg PUBLIC "-//W3C//DTD SVG 20010904//EN"
 "http://www.w3.org/TR/2001/REC-SVG-20010904/DTD/svg10.dtd">
<svg version="1.0" xmlns="http://www.w3.org/2000/svg"
 width="792.000000pt" height="792.000000pt" viewBox="0 0 792.000000 792.000000"
 preserveAspectRatio="xMidYMid meet">
<metadata>
Created by potrace 1.11, written by Peter Selinger 2001-2013
</metadata>
<g transform="translate(0.000000,792.000000) scale(0.100000,-0.100000)"
fill="#000000" stroke="none">
<path d="M3697 5914 c-1 -1 -29 -5 -62 -8 -107 -11 -157 -19 -193 -30 -9 -3
-29 -7 -43 -10 -59 -10 -251 -80 -344 -126 -187 -92 -382 -237 -504 -374 -14
-16 -33 -37 -41 -45 -59 -64 -200 -268 -200 -291 0 -5 -4 -10 -9 -10 -5 0 -12
-12 -16 -27 -3 -15 -10 -30 -14 -33 -8 -6 -61 -123 -61 -135 0 -4 -7 -21 -15
-38 -37 -82 -89 -306 -100 -437 -5 -65 -5 -272 0 -315 2 -16 6 -52 9 -80 3
-27 8 -61 12 -75 3 -14 9 -43 13 -65 9 -47 63 -228 71 -235 3 -3 6 -12 8 -20
7 -34 112 -240 156 -304 25 -38 46 -72 46 -76 0 -5 3 -10 8 -12 4 -1 23 -23
42 -48 19 -24 42 -52 50 -60 8 -9 36 -39 61 -66 103 -112 278 -245 425 -324
32 -18 64 -35 69 -38 6 -4 15 -7 20 -8 6 -2 47 -18 93 -38 45 -19 82 -33 82
-30 0 2 13 -2 30 -11 16 -8 40 -15 53 -15 13 0 27 -3 31 -7 3 -4 12 -8 19 -9
7 -1 26 -5 42 -9 17 -3 44 -8 60 -11 17 -3 41 -7 55 -10 114 -23 422 -23 525
-1 11 3 40 8 65 12 25 4 70 14 100 22 30 8 62 16 70 18 135 35 406 167 503
245 7 5 46 36 88 69 155 122 332 330 416 490 109 203 173 383 197 546 4 22 9
54 12 70 2 17 7 55 9 85 2 30 5 57 5 60 4 12 -1 190 -6 245 -7 72 -9 87 -18
145 -4 25 -8 53 -10 62 -1 10 -5 21 -9 24 -4 4 -7 17 -7 28 0 35 -84 265 -130
356 -60 120 -163 277 -230 351 -50 55 -160 165 -189 187 -18 15 -50 42 -70 59
-20 18 -41 33 -48 33 -6 0 -13 4 -15 9 -5 14 -155 104 -248 148 -84 41 -236
98 -288 108 -38 8 -57 13 -57 15 0 2 -25 8 -70 15 -22 3 -47 8 -55 10 -44 12
-382 29 -393 19z"/>
</g>
</svg>
